<svg xmlns="http://www.w3.org/2000/svg" xmlns:xlink="http://www.w3.org/1999/xlink" width="233" height="149" viewBox="0 0 233 149">
  <defs>
    <clipPath id="clip-path">
      <rect id="Rectangle_11237" data-name="Rectangle 11237" width="640" height="357" fill="#fff" stroke="#707070" stroke-width="1"/>
    </clipPath>
    <clipPath id="clip-arin22594887-arora-pilates-rev-652-4c-233x149">
      <rect width="233" height="149"/>
    </clipPath>
  </defs>
  <g id="arin22594887-arora-pilates-rev-652-4c-233x149" clip-path="url(#clip-arin22594887-arora-pilates-rev-652-4c-233x149)">
    <g id="Group_21234" data-name="Group 21234" transform="translate(15.519 16.793)">
      <path id="Path_25714" data-name="Path 25714" d="M170.609,0V21.116h5.571V12.758h3.96V8.067h-3.96V5.134h4.4V0Z" transform="translate(-95.231 -0.001)" fill="#fff"/>
      <path id="Path_25715" data-name="Path 25715" d="M194.981,0V21.116h9.97V15.837h-4.4V12.758h3.959V8.067h-3.959V5.134h4.4V0Z" transform="translate(-108.752 -0.001)" fill="#fff"/>
      <path id="Path_25716" data-name="Path 25716" d="M130.1,0V21.116h10.556V15.837H135.67V0Z" transform="translate(-72.757 -0.001)" fill="#fff"/>
      <rect id="Rectangle_11228" data-name="Rectangle 11228" width="5.571" height="21.115" transform="translate(68.78 0)" fill="#fff"/>
      <path id="Path_25717" data-name="Path 25717" d="M313.544,0V21.116h9.971V15.838h-4.4v-3.08h3.959V8.067h-3.959V5.134h4.4V0Z" transform="translate(-174.53 -0.001)" fill="#fff"/>
      <path id="Path_25718" data-name="Path 25718" d="M225.281,0V5.133h3.226V21.116h5.571V5.133H237.3V0Z" transform="translate(-125.562 -0.001)" fill="#fff"/>
      <rect id="Rectangle_11229" data-name="Rectangle 11229" width="5.572" height="21.115" transform="translate(112.621 0)" fill="#fff"/>
      <path id="Path_25719" data-name="Path 25719" d="M279.935,0l-1.466,10.557L277,0h-7.916V21.116h5.278V9.386l2.053,11.73h4.105l2.054-11.73v11.73h5.278V0Z" transform="translate(-149.865 -0.001)" fill="#fff"/>
      <path id="Path_25720" data-name="Path 25720" d="M338.448,1.216h.266c.17,0,.3-.025.3-.208,0-.162-.173-.187-.309-.187h-.251Zm-.3-.63h.569c.377,0,.589.119.589.447a.376.376,0,0,1-.346.4.366.366,0,0,1-.049,0l.4.658H339l-.367-.644h-.187v.644h-.3Zm.536,1.816A1.021,1.021,0,0,0,339.7,1.377c0-.012,0-.025,0-.037a1.015,1.015,0,0,0-2.028-.072q0,.036,0,.072a1.017,1.017,0,0,0,.971,1.061h.043m0-2.4a1.333,1.333,0,0,1,1.38,1.285c0,.018,0,.037,0,.056a1.381,1.381,0,0,1-2.763,0A1.333,1.333,0,0,1,338.629,0h.056" transform="translate(-187.712 0)" fill="#fff"/>
      <path id="Path_25721" data-name="Path 25721" d="M21.758,107.718l4.23,9.7H17.327ZM1.3,134.179H9.724l4.287-9.345h15.2l4.038,9.345h8.516L21.9,89.942Z" transform="translate(-1.3 -49.899)" fill="#7c9ac0"/>
      <path id="Path_25722" data-name="Path 25722" d="M122.785,106.4c0,2.445-.85,5.7-8.189,5.7h-1.069V101.126h1.318c7.117,0,7.94,3.009,7.94,5.27m5.42,7.99a12.225,12.225,0,0,0,2.833-8.071,11.914,11.914,0,0,0-4.522-9.683c-2.717-2.188-6.924-3.252-12.862-3.252h-8.546v42.708h8.419V119.841l11.9,16.247h10.377l-13.549-17.765a12.456,12.456,0,0,0,5.946-3.936" transform="translate(-58.892 -51.806)" fill="#7c9ac0"/>
      <path id="Path_25723" data-name="Path 25723" d="M202.654,128.156a13.506,13.506,0,0,1-9.743-4.08,14.728,14.728,0,0,1-.139-20.53,13.457,13.457,0,0,1,10.041-4.141,13.321,13.321,0,0,1,10.015,4.141,14.83,14.83,0,0,1-.053,20.467,13.6,13.6,0,0,1-10.123,4.144m.238-36.494a21.8,21.8,0,0,0-15.78,6.456,22.013,22.013,0,0,0,.65,32.051,22.511,22.511,0,0,0,30.726-.723,21.071,21.071,0,0,0,6.576-15.612,22.29,22.29,0,0,0-22.171-22.171" transform="translate(-100.723 -50.853)" fill="#7c9ac0"/>
      <path id="Path_25724" data-name="Path 25724" d="M314.329,106.4c0,2.445-.85,5.7-8.189,5.7h-1.069V101.126h1.317c7.117,0,7.94,3.009,7.94,5.27m5.42,7.99a12.227,12.227,0,0,0,2.833-8.071,11.915,11.915,0,0,0-4.522-9.683c-2.718-2.188-6.925-3.252-12.862-3.252h-8.546v42.708h8.419V119.841l11.9,16.247h10.377L313.8,118.322a12.463,12.463,0,0,0,5.947-3.936" transform="translate(-165.158 -51.806)" fill="#7c9ac0"/>
      <path id="Path_25725" data-name="Path 25725" d="M396.125,107.718l4.229,9.7h-8.662Zm-20.459,26.462h8.425l4.286-9.345h15.2l4.038,9.345h8.516L396.261,89.942Z" transform="translate(-208.994 -49.899)" fill="#7c9ac0"/>
      <path id="Path_25726" data-name="Path 25726" d="M439.867,91.381a1.455,1.455,0,0,1-.442.056.825.825,0,0,1-.641-.212.672.672,0,0,1-.137-.352h-.719a.992.992,0,0,0,.408.841,1.822,1.822,0,0,0,1.118.307,1.666,1.666,0,0,0,1.078-.311.965.965,0,0,0,.382-.781.821.821,0,0,0-.322-.7,1.645,1.645,0,0,0-.623-.248l-.633-.142a2.3,2.3,0,0,1-.478-.142.293.293,0,0,1-.175-.275.349.349,0,0,1,.178-.311.885.885,0,0,1,.476-.112,1.046,1.046,0,0,1,.448.085.492.492,0,0,1,.291.44h.723a1,1,0,0,0-.425-.833,1.659,1.659,0,0,0-.982-.288,1.572,1.572,0,0,0-1.047.305.965.965,0,0,0-.356.765.828.828,0,0,0,.363.743,2.528,2.528,0,0,0,.79.262l.39.082a1.768,1.768,0,0,1,.5.161.289.289,0,0,1,.157.262.4.4,0,0,1-.321.4" transform="translate(-243.537 -49.042)" fill="#7c9ac0"/>
      <path id="Path_25727" data-name="Path 25727" d="M447.507,89.743c0-.066,0-.159,0-.28s0-.212,0-.277l.677,2.878h.732l.683-2.878c0,.065,0,.158,0,.277s0,.212,0,.28v2.32h.7v-3.43h-1.084l-.65,2.7-.655-2.7h-1.1v3.43h.7Z" transform="translate(-248.462 -49.173)" fill="#7c9ac0"/>
      <text id="Pilates_" data-name="Pilates
" transform="translate(62.186 111.948)" fill="#fff" font-size="14" font-family="Futura-Medium, Futura" font-weight="500" letter-spacing="0.326em"><tspan x="0" y="0">PILATES</tspan><tspan font-family="Futura-Medium"><tspan x="0" y="17"></tspan></tspan></text>
    </g>
  </g>
</svg>
