<?xml version="1.0" encoding="UTF-8" standalone="no"?>
<svg
   xmlns:dc="http://purl.org/dc/elements/1.1/"
   xmlns:cc="http://creativecommons.org/ns#"
   xmlns:rdf="http://www.w3.org/1999/02/22-rdf-syntax-ns#"
   xmlns:svg="http://www.w3.org/2000/svg"
   xmlns="http://www.w3.org/2000/svg"
   xmlns:sodipodi="http://sodipodi.sourceforge.net/DTD/sodipodi-0.dtd"
   xmlns:inkscape="http://www.inkscape.org/namespaces/inkscape"
   inkscape:version="1.0 (4035a4fb49, 2020-05-01)"
   sodipodi:docname="fts-chicago-a.svg"
   id="svg38"
   version="1.1"
   viewBox="0 0 1300 494.70999"
   height="494.70999"
   width="1300">
  <metadata
     id="metadata44">
    <rdf:RDF>
      <cc:Work
         rdf:about="">
        <dc:format>image/svg+xml</dc:format>
        <dc:type
           rdf:resource="http://purl.org/dc/dcmitype/StillImage" />
        <dc:title>logo/4-color/chicago</dc:title>
      </cc:Work>
    </rdf:RDF>
  </metadata>
  <defs
     id="defs42" />
  <sodipodi:namedview
     inkscape:current-layer="svg38"
     inkscape:window-maximized="1"
     inkscape:window-y="-8"
     inkscape:window-x="-8"
     inkscape:cy="249.66247"
     inkscape:cx="696.21326"
     inkscape:zoom="0.53413462"
     inkscape:pagecheckerboard="true"
     showgrid="false"
     id="namedview40"
     inkscape:window-height="961"
     inkscape:window-width="1280"
     inkscape:pageshadow="2"
     inkscape:pageopacity="0"
     guidetolerance="10"
     gridtolerance="10"
     objecttolerance="10"
     borderopacity="1"
     bordercolor="#666666"
     pagecolor="#ffffff" />
  <title
     id="title34">logo/4-color/chicago</title>
  <g
     transform="matrix(10,0,0,9.9999264,0,-19.999853)"
     style="fill:#000000"
     fill-rule="evenodd"
     fill="none"
     stroke-width="1"
     stroke="none"
     id="logo/4-color/chicago">
    <path
       style="fill:#000000"
       fill="#FFFFFF"
       id="fts-chicago-c-copy"
       d="m 40.723513,12.922824 v 13.84769 c 0,1.56079 -1.265269,2.826059 -2.826059,2.826059 -1.560789,0 -2.826059,-1.265269 -2.826059,-2.826059 v -13.84769 c -0.01701,-1.596111 1.231664,-2.919704 2.826059,-2.9956228 1.581495,0.1036428 2.81464,1.4107768 2.826059,2.9956228 z m 42.108283,31.906209 -0.876078,2.939101 h 1.808677 L 82.902447,44.829033 Z M 126.3955,44.292081 c -0.17484,-0.176981 -0.38736,-0.312224 -0.62173,-0.395648 -0.19842,-0.07599 -0.40927,-0.11432 -0.62174,-0.113073 -0.20775,1.72e-4 -0.4137,0.03849 -0.6076,0.113073 -0.23437,0.08342 -0.4469,0.218667 -0.62173,0.395648 -0.20616,0.235723 -0.36453,0.509271 -0.4663,0.805427 -0.14419,0.417757 -0.21123,0.85825 -0.19783,1.299987 -0.012,0.446276 0.0549,0.891164 0.19783,1.314118 0.0985,0.293406 0.25737,0.562947 0.4663,0.791297 0.17432,0.180972 0.38668,0.32094 0.62173,0.409778 0.39585,0.151075 0.83348,0.151075 1.22934,0 0.23504,-0.08884 0.44741,-0.228806 0.62173,-0.409778 0.20893,-0.22835 0.36777,-0.497891 0.4663,-0.791297 0.14288,-0.422954 0.20986,-0.867842 0.19782,-1.314118 0.0134,-0.441737 -0.0536,-0.88223 -0.19782,-1.299987 -0.10177,-0.296156 -0.26014,-0.569704 -0.4663,-0.805427 z M 9.1988228,47.429007 H 6.3727635 c 0,0.226085 -0.1130423,0.438039 -0.1836938,0.635863 -0.078812,0.17611 -0.1784336,0.342146 -0.2967362,0.494561 -0.119319,0.143857 -0.26888,0.259646 -0.4380392,0.339127 -0.2001252,0.08831 -0.4171654,0.131722 -0.6358633,0.127173 -0.3071974,0.0061 -0.610193,-0.0721 -0.8760784,-0.226085 C 3.7131695,48.643569 3.5243003,48.435329 3.3912711,48.192043 3.2464155,47.927675 3.1461578,47.641225 3.0945349,47.344225 c -0.06841,-0.310862 -0.1015896,-0.62844 -0.098912,-0.94673 -0.00209,-0.31826 0.031085,-0.635773 0.098912,-0.946729 0.051623,-0.297 0.1518806,-0.58345 0.2967362,-0.847818 0.1376355,-0.236076 0.3258332,-0.438751 0.5510815,-0.593473 0.2631456,-0.160569 0.568094,-0.239265 0.8760784,-0.226084 0.2557632,-0.01108 0.5097326,0.04753 0.7347754,0.169563 0.1824502,0.09626 0.3416103,0.231309 0.4662997,0.395648 0.1084723,0.139079 0.1899475,0.297237 0.2402151,0.4663 0.044065,0.119203 0.077173,0.242174 0.098912,0.367388 H 9.1846925 C 9.1364203,44.115494 8.6872934,43.10622 7.9270961,42.356231 7.0677867,41.647659 5.9727759,41.289384 4.8608219,41.35298 c -0.6769499,-0.0064 -1.348735,0.118342 -1.9782415,0.367388 -0.5808527,0.22391 -1.1063041,0.570997 -1.5402023,1.017381 -0.45470647,0.479371 -0.79736113,1.05368 -1.00325099,1.681505 -0.44253646,1.305906 -0.44253646,2.721229 0,4.027134 0.20003674,0.58545 0.5173694,1.123954 0.93259949,1.582594 0.451167,0.424688 0.9785322,0.760284 1.5543326,0.98912 0.6502201,0.264136 1.3471805,0.393915 2.048893,0.381518 0.6396902,0.01513 1.2753428,-0.105261 1.865199,-0.353257 C 7.266703,50.84206 7.7471193,50.534593 8.1531809,50.142024 8.51506,49.771279 8.8028187,49.334845 9.0009986,48.856167 9.1553293,48.396938 9.2224238,47.9129 9.1988228,47.429007 Z M 19.358506,16.469528 H 9.8912073 V 11.919573 H 21.591092 L 20.941099,2.4381443 H 0 V 37.142151 H 9.7640346 V 25.936827 h 9.5944714 z m 10.06077,25.123667 h -2.939101 v 3.320619 h -2.755408 v -3.320619 h -2.939101 v 9.55208 h 2.939101 v -3.758659 h 2.755408 v 3.78692 h 2.939101 z m 8.379266,-4.903213 c 9.20223,-0.100944 16.588942,-7.62667 16.518316,-16.829183 0.176029,-6.019174 -2.934625,-11.658008 -8.120022,-14.7195605 -5.185397,-3.0615526 -11.625321,-3.0615526 -16.810718,0 -5.185397,3.0615525 -8.296051,8.7003865 -8.120022,14.7195605 -0.04519,4.428394 1.671724,8.693144 4.772607,11.854984 3.100883,3.16184 7.331405,4.961441 11.759839,5.00246 z m 7.234712,4.903213 h -2.939102 v 9.55208 h 2.939102 z m 21.591092,5.807551 h -2.826059 c -0.03767,0.218063 -0.09927,0.431307 -0.183694,0.635864 -0.06807,0.181499 -0.168624,0.349085 -0.296736,0.49456 -0.112869,0.150368 -0.264193,0.267522 -0.438039,0.339127 -0.19923,0.09111 -0.416917,0.134647 -0.635864,0.127173 -0.30277,0.0064 -0.601312,-0.07188 -0.861948,-0.226085 -0.235704,-0.148444 -0.426283,-0.35857 -0.551081,-0.607602 -0.143433,-0.266376 -0.248111,-0.551861 -0.310867,-0.847818 -0.05687,-0.312359 -0.08525,-0.629237 -0.08478,-0.94673 1.44e-4,-0.317466 0.02852,-0.63429 0.08478,-0.94673 0.06276,-0.295957 0.167434,-0.581442 0.310867,-0.847818 0.12911,-0.242273 0.319023,-0.446794 0.551081,-0.593472 0.25808,-0.160242 0.558444,-0.239026 0.861948,-0.226085 0.260502,-0.01369 0.519708,0.045 0.748906,0.169564 0.175021,0.101219 0.328613,0.235612 0.45217,0.395648 0.111387,0.13937 0.197473,0.297194 0.254345,0.4663 0,0.155433 0.07065,0.282606 0.08478,0.367387 h 2.826059 c -0.05204,-1.068762 -0.506335,-2.078305 -1.271727,-2.826059 -0.854974,-0.706417 -1.944788,-1.064642 -3.052144,-1.003251 -0.681633,-0.0075 -1.358255,0.117236 -1.992371,0.367388 -0.574785,0.227637 -1.094875,0.574364 -1.526072,1.017381 -0.453212,0.488935 -0.791188,1.07315 -0.989121,1.709766 -0.452221,1.304292 -0.452221,2.722842 0,4.027134 0.20532,0.58612 0.527389,1.124504 0.94673,1.582594 0.428801,0.449926 0.942733,0.810159 1.511941,1.059772 0.655159,0.264137 1.356731,0.39388 2.063024,0.381518 0.63502,0.01398 1.265826,-0.1064 1.851068,-0.353258 0.527789,-0.201858 1.00867,-0.509622 1.41303,-0.904339 0.71747,-0.721464 1.123342,-1.695557 1.130424,-2.713016 z M 69.944966,37.0715 H 80.754642 L 70.312353,19.097763 79.793782,2.522926 H 69.351493 L 64.999362,9.9837224 60.760273,2.522926 H 49.922336 l 9.679253,16.70201 -10.244465,17.888955 h 10.512941 l 5.002125,-8.760784 z m 17.804173,14.130296 -3.476053,-9.608601 h -2.826059 l -3.518444,9.55208 h 2.953232 l 0.423909,-1.41303 h 3.038014 l 0.409778,1.41303 z m 8.167311,-13.84769 c 4.84669,0 9.05752,-2.515193 10.69663,-5.510816 -0.76866,1.402629 -1.24909,2.944805 -1.41302,4.535825 v 0.621734 h 20.67262 l 3.84344,-6.824934 h -12.88683 c 0.21195,-0.282605 7.64449,-7.65862 9.08578,-9.269474 1.27581,-1.331759 2.3601,-2.834559 3.22171,-4.465173 0.59159,-1.398329 0.88515,-2.904638 0.86194,-4.422783 -0.0677,-2.7163687 -1.27243,-5.2796029 -3.32061,-7.065148 -2.17359,-1.985994 -5.04149,-3.0367121 -7.98362,-2.9249713 -2.84272,-0.1956686 -5.66241,0.6256986 -7.95536,2.3173685 -2.52072,1.9615057 -4.10846,4.8860113 -4.38039,8.0683988 v 0.678254 h 7.33362 c 0.0204,-2.483559 1.98377,-4.515323 4.46518,-4.6206063 1.27018,-0.2344273 2.57099,0.2074836 3.43553,1.1671208 0.86454,0.9596375 1.16879,2.2993435 0.80356,3.5382675 -0.2861,1.073892 -0.85736,2.050397 -1.65325,2.826059 0,0 -2.50106,2.713017 -5.36951,5.383643 -2.80313,2.425289 -5.29068,5.19292 -7.40428,8.237963 -0.0528,0.108383 -0.11422,0.212341 -0.18369,0.310866 0.858,-1.795108 1.29765,-3.761448 1.28586,-5.75103 0.14627,-4.683047 -2.34927,-9.051606 -6.45755,-11.304237 L 108.42176,2.5935775 H 90.250201 l -3.772789,6.7684119 h 9.891208 l -5.22821,8.8738256 c 2.154794,-1.206171 4.765116,-1.274864 6.980366,-0.183694 1.854239,0.926963 3.207804,2.621507 3.702134,4.634738 0.35364,1.424905 0.18312,2.929463 -0.48043,4.239088 -0.96616,1.860578 -2.792543,3.12052 -4.874948,3.363011 -1.453471,0.19859 -2.932893,-0.05291 -4.239089,-0.720645 -2.418381,-1.207374 -3.980619,-3.642946 -4.069526,-6.344503 l -3.998873,6.471675 c 0.544486,1.202319 1.258237,2.320528 2.119544,3.32062 2.443273,2.758739 5.951726,4.338001 9.636862,4.338001 z m 12.33575,8.562959 h -3.91409 v 2.048893 h 1.29998 c -0.025,0.169795 -0.0931,0.330346 -0.19782,0.4663 -0.0982,0.133016 -0.22339,0.243771 -0.36739,0.324997 -0.14114,0.08598 -0.29323,0.152523 -0.45217,0.197824 -0.16894,0.02056 -0.33975,0.02056 -0.50869,0 -0.38097,0.01725 -0.75881,-0.07598 -1.08803,-0.268476 -0.2658,-0.155087 -0.4891,-0.373533 -0.65,-0.635863 -0.15709,-0.241001 -0.26734,-0.509452 -0.32499,-0.791296 -0.0513,-0.251258 -0.0797,-0.50665 -0.0848,-0.763036 v -0.43804 -0.579342 c 0.0299,-0.213595 0.0869,-0.422516 0.16956,-0.621733 0.0713,-0.211656 0.18156,-0.408136 0.325,-0.579342 0.15298,-0.17366 0.34073,-0.313264 0.55108,-0.409779 0.26898,-0.109333 0.55755,-0.162238 0.84782,-0.155433 0.335,-0.004 0.66052,0.111207 0.91847,0.324997 0.25852,0.220244 0.42907,0.526233 0.48043,0.861948 h 2.82605 c -0.14301,-1.01639 -0.64407,-1.94837 -1.41302,-2.628235 -0.83727,-0.662831 -1.88665,-0.999237 -2.95324,-0.94673 -0.5594,0.0036 -1.11396,0.103971 -1.63911,0.296736 -0.56055,0.18805 -1.07556,0.49128 -1.51194,0.890209 -0.48552,0.437637 -0.866936,0.978383 -1.116296,1.582593 -0.312676,0.736412 -0.462116,1.531818 -0.438039,2.331499 -0.0067,0.648995 0.09849,1.294291 0.310866,1.90759 0.196069,0.572645 0.503407,1.100881 0.904339,1.554333 0.39335,0.446423 0.87433,0.807157 1.41303,1.059772 0.59684,0.26038 1.24236,0.390447 1.89346,0.381518 0.517,-0.0012 1.02941,-0.09699 1.51194,-0.282606 0.4815,-0.189161 0.90184,-0.506859 1.21521,-0.918469 l 0.0848,0.97499 h 1.8652 z m 21.74652,0.48043 c 0.006,-0.675629 -0.11368,-1.346486 -0.35325,-1.978241 -0.21189,-0.58936 -0.5439,-1.128277 -0.97499,-1.582593 -0.42341,-0.449831 -0.93272,-0.810192 -1.49782,-1.059772 -1.27464,-0.508778 -2.69596,-0.508778 -3.97061,0 -0.57276,0.237931 -1.09176,0.588737 -1.52607,1.031511 -0.4446,0.45994 -0.78654,1.008982 -1.00325,1.610854 -0.24306,0.64062 -0.36291,1.32139 -0.35326,2.006502 -0.009,0.68969 0.11041,1.375044 0.35326,2.020632 0.21214,0.585053 0.54424,1.119299 0.97499,1.568463 0.43375,0.446968 0.95265,0.802511 1.52607,1.045642 1.27831,0.489343 2.69231,0.489343 3.97062,0 0.57341,-0.243131 1.09231,-0.598674 1.52607,-1.045642 0.43074,-0.449164 0.76284,-0.98341 0.97499,-1.568463 0.24635,-0.654454 0.36623,-1.349727 0.35325,-2.048893 z" />
  </g>
</svg>
