<?xml version="1.0" encoding="UTF-8"?> <svg xmlns="http://www.w3.org/2000/svg" width="233" height="50" viewBox="0 0 233 50" fill="none"><path d="M207.844 28.4153H231.49C232.163 28.4153 232.5 28.1654 232.5 27.5823C231.911 18.7531 226.02 12.4227 215.923 12.4227C206.414 12.4227 197.999 20.0025 197.999 31.7471C197.999 43.4916 204.647 49.8221 216.848 49.8221C219.793 49.8221 222.655 49.1557 225.347 47.823C229.471 45.7406 232.163 42.0756 232.163 38.1608C232.163 35.0789 229.891 32.8299 226.525 32.8299C223.412 32.8299 221.14 35.3287 221.14 38.4107C221.14 41.4926 223.58 43.9081 226.525 43.9081C227.199 43.9081 227.956 43.7415 228.629 43.4916C227.788 44.991 226.525 46.3237 224.927 46.99C223.412 47.823 221.392 48.2394 219.289 48.2394C212.052 48.2394 208.013 40.8262 208.013 31.997V31.3306C207.676 30.2478 207.676 29.4148 207.844 28.4153ZM215.754 13.3389C220.887 13.3389 222.57 19.6693 222.57 27.499H207.844C208.433 18.17 211.379 13.3389 215.754 13.3389Z" fill="black"></path><path d="M189.499 40.0764V1.09443C189.499 0.428071 189.499 0.0115967 188.826 0.0115967C188.237 0.0115967 186.722 0.594661 184.282 1.01114C180.916 1.5942 177.466 2.01067 173.848 2.01067V2.84362C179.906 2.84362 180.748 3.42669 180.748 10.007V21.7516C179.317 16.2541 176.372 12.9223 170.987 12.9223C163.666 12.9223 156.849 18.6696 156.849 31.9968C156.849 45.324 163.161 49.9885 170.482 49.9885C175.026 49.9885 177.803 47.4897 179.654 42.5753C179.822 42.3254 179.906 41.9089 179.906 41.5757V43.8247C179.906 47.9894 181.589 49.4055 184.45 49.4055H194.212V48.4059C190.341 48.3226 189.499 47.1565 189.499 40.0764ZM180.832 32.0801C180.832 35.4119 180.159 39.2435 178.981 42.1588C177.718 45.4906 175.867 47.9061 173.427 47.9061C169.893 47.9061 166.358 45.0741 166.358 31.4971C166.358 18.3365 170.061 14.5882 173.679 14.5882C176.372 14.5882 178.644 17.4202 179.906 21.8349C180.495 23.9172 180.916 26.5827 180.916 29.4147L180.832 32.0801Z" fill="black"></path><path d="M150.285 40.0764V25.2499C150.285 16.6706 144.227 12.5058 133.624 12.5058C132.782 12.5058 131.941 12.5058 131.184 12.6724C124.115 13.3388 119.739 16.8372 119.739 21.0852C119.739 24.5836 122.264 26.666 125.546 26.666C128.659 26.666 131.099 24.2504 131.099 21.1685C131.099 18.3365 129.248 15.8376 125.882 15.8376C125.461 15.8376 124.872 15.8376 124.452 16.0042C126.303 14.5049 128.827 13.7553 131.352 13.5054C131.941 13.5054 132.446 13.5054 133.035 13.5054C138 13.5054 141.113 16.3374 141.113 21.3351V22.8344C141.113 25.6664 139.094 26.9991 136.569 27.9987C136.569 27.9987 136.148 28.1653 135.896 28.2486C131.773 29.498 127.397 30.3309 123.863 31.9135C120.328 33.4128 117.888 35.995 117.888 40.9094C117.888 47.4897 122.432 49.9885 128.743 49.9885C133.961 49.9885 137.663 48.3226 140.188 44.4911C140.188 44.3245 140.44 44.0746 140.44 43.908C140.44 43.908 140.692 43.3249 140.861 43.075V43.6581C140.861 47.9894 142.712 49.4055 145.489 49.4055H155.503V48.4059C151.295 48.156 150.285 47.0732 150.285 40.0764ZM140.945 37.4943C140.945 39.5767 140.356 41.659 139.43 43.4082L139.262 43.6581C137.831 45.9071 135.728 47.3231 133.624 47.3231C130.258 47.3231 127.986 45.2407 127.986 40.0764C127.986 33.0797 130.258 30.9973 136.064 28.9982C136.317 28.9982 136.906 28.7483 136.906 28.7483C138.757 28.082 140.188 27.249 141.113 26.0829L140.945 37.4943Z" fill="black"></path><path d="M22.9678 30.0802C38.5355 30.0802 45.4357 24.9992 45.4357 15.5036C45.5198 5.75813 37.4415 1.26021 23.3044 1.26021H0.836597V2.25974C8.07343 2.25974 8.99907 3.25928 8.99907 10.2561V39.8257C8.99907 46.5726 7.56854 47.6554 0.5 47.6554V48.655H26.5021V47.6554C19.686 47.4889 18.003 46.5726 18.1713 39.8257V30.0802H22.9678ZM18.0872 2.25974H21.8739C31.3828 2.25974 35.8427 6.34119 35.8427 15.2537C35.8427 24.1663 30.8779 29.2473 21.7056 29.2473H17.9189L18.0872 2.25974Z" fill="black"></path><path d="M111.409 12.5891C108.127 12.5891 104.761 14.255 102.321 17.1703C101.227 18.5864 100.301 20.2523 99.8805 21.9181V13.9218C99.8805 13.2555 99.8805 12.839 99.2073 12.839C98.6182 12.839 97.356 13.0889 95.2523 13.4221C92.307 13.8385 89.2777 14.255 85.2385 14.255V15.088C90.3716 15.088 91.2131 15.7543 91.2131 21.9181V40.243C91.2131 46.9899 90.2033 48.2393 86.2483 48.2393C82.4616 48.2393 81.6201 46.9899 81.6201 40.1597V25.1666C81.5359 16.6706 75.6455 12.5058 65.1268 12.5058C64.2853 12.5058 63.6121 12.5058 62.6865 12.6724C55.7863 13.3388 51.4105 16.6706 51.4105 21.0019C51.4105 24.5003 53.8508 26.5827 57.2168 26.5827C60.3303 26.5827 62.6023 24.1671 62.6023 21.0852C62.6023 18.2532 60.7511 15.7543 57.3851 15.7543C56.9644 15.7543 56.3753 15.7543 55.9546 15.9209C57.8058 14.4216 60.162 13.672 62.7706 13.4221C63.3597 13.4221 63.8646 13.4221 64.4536 13.4221C69.0818 13.4221 72.3637 16.2541 72.3637 21.2518V22.7511C72.3637 25.5831 70.5124 26.9158 67.8196 27.9154C67.6513 27.9154 67.3989 28.082 67.1464 28.1653C63.1914 29.4147 58.6473 30.2476 55.4497 31.8302C52.0837 33.3295 49.4751 35.9117 49.4751 40.8261C49.4751 47.4897 53.935 49.9885 60.162 49.9885C65.2951 49.9885 68.8294 48.3226 71.1856 44.6576C71.1856 44.4911 71.3539 44.4078 71.3539 44.2412L71.7746 43.5748L72.0271 42.9918V43.5748C72.0271 47.9061 73.7101 49.3222 76.6553 49.3222H104.929V48.3226C100.722 48.3226 99.7122 47.2398 99.7963 40.243V29.6646C99.7963 24.3337 101.059 20.2523 103.162 17.5868C104.677 15.5877 106.949 14.3383 109.389 13.9218C107.875 14.7548 106.697 16.3374 106.697 18.6696C106.697 21.585 109.137 24.0005 112.25 24.0005C115.111 24.0005 117.636 21.9181 117.636 18.2532C117.72 15.5877 115.616 12.5891 111.409 12.5891ZM72.3637 37.4943C72.3637 39.4934 71.9429 41.4091 70.9331 43.075C70.7648 43.3249 70.6807 43.6581 70.5124 43.7414C69.2501 45.8238 67.1464 47.4064 65.1268 47.4064C61.7609 47.4064 59.573 45.324 59.573 40.1597C59.573 33.163 61.845 31.0806 67.3147 29.0815C67.5672 29.0815 67.9038 28.9149 68.1562 28.8316C70.0075 28.1653 71.438 27.3323 72.3637 26.1662C72.3637 26.3328 72.3637 37.4943 72.3637 37.4943Z" fill="black"></path></svg> 